<?xml version="1.0" encoding="UTF-8" standalone="no"?>
<svg
   xmlns:dc="http://purl.org/dc/elements/1.1/"
   xmlns:cc="http://creativecommons.org/ns#"
   xmlns:rdf="http://www.w3.org/1999/02/22-rdf-syntax-ns#"
   xmlns:svg="http://www.w3.org/2000/svg"
   xmlns="http://www.w3.org/2000/svg"
   xmlns:sodipodi="http://sodipodi.sourceforge.net/DTD/sodipodi-0.dtd"
   xmlns:inkscape="http://www.inkscape.org/namespaces/inkscape"
   version="1.1"
   id="Layer_1"
   sodipodi:docname="noun_100251_cc.svg"
   inkscape:version="0.91 r13725"
   x="0px"
   y="0px"
   width="55.074074"
   height="54.922222"
   viewBox="5 -10 55.074074 74.145"
   enable-background="new 0 0 100 100"
   xml:space="preserve"><metadata
     id="metadata72"><rdf:RDF><cc:Work
         rdf:about=""><dc:format>image/svg+xml</dc:format><dc:type
           rdf:resource="http://purl.org/dc/dcmitype/StillImage" /><dc:title></dc:title></cc:Work></rdf:RDF></metadata><defs
     id="defs70" /><sodipodi:namedview
     inkscape:cy="5.7708698"
     inkscape:cx="38.727054"
     inkscape:zoom="9.44"
     showguides="true"
     showgrid="false"
     guidetolerance="10"
     gridtolerance="10"
     objecttolerance="10"
     borderopacity="1"
     pagecolor="#ffffff"
     bordercolor="#666666"
     id="namedview21"
     inkscape:snap-global="true"
     inkscape:current-layer="g3169"
     inkscape:window-maximized="1"
     inkscape:window-y="27"
     inkscape:window-x="0"
     inkscape:guide-bbox="true"
     inkscape:window-height="702"
     inkscape:window-width="1366"
     inkscape:pageopacity="0"
     inkscape:pageshadow="2"
     fit-margin-top="0"
     fit-margin-left="0"
     fit-margin-right="0"
     fit-margin-bottom="0"><sodipodi:guide
       position="-26.813007,22.029624"
       orientation="0,1"
       id="guide3105" /><sodipodi:guide
       position="71.703943,-37.928003"
       orientation="0,1"
       id="guide3107" /><sodipodi:guide
       position="-22.046058,2.0084378"
       orientation="0,1"
       id="guide3109" /><sodipodi:guide
       position="-29.885041,20.122845"
       orientation="0,1"
       id="guide3113" /><sodipodi:guide
       position="20.177992,55.4041"
       orientation="1,0"
       id="guide3117" /><sodipodi:guide
       position="-13.978862,59.748612"
       orientation="1,0"
       id="guide3123" /><sodipodi:guide
       position="4.1482396,56.602586"
       orientation="1,0"
       id="guide3127" /><sodipodi:guide
       position="38.155283,59.748612"
       orientation="1,0"
       id="guide3133" /><sodipodi:guide
       position="22.125532,54.954668"
       orientation="1,0"
       id="guide3147" /><sodipodi:guide
       position="48.192603,59.748612"
       orientation="0,1"
       id="guide3237" /><sodipodi:guide
       position="56.282385,55.254289"
       orientation="1,0"
       id="guide3335" /><sodipodi:guide
       position="80.551729,18.101221"
       orientation="1,0"
       id="guide3337" /><sodipodi:guide
       position="-25.647753,4.1270818"
       orientation="0,1"
       id="guide3339" /><sodipodi:guide
       position="-42.173177,-31.9958"
       orientation="0,1"
       id="guide3178" /><sodipodi:guide
       position="2.2007006,53.756182"
       orientation="1,0"
       id="guide3180" /><sodipodi:guide
       position="40.252633,44.617725"
       orientation="1,0"
       id="guide3182" /><sodipodi:guide
       position="74.109865,55.254289"
       orientation="1,0"
       id="guide3186" /><sodipodi:guide
       position="-39.736736,-15.894105"
       orientation="0,1"
       id="guide3188" /><sodipodi:guide
       position="-28.084193,38.131319"
       orientation="0,1"
       id="guide3192" /><sodipodi:guide
       position="-4.8850404,-13.881393"
       orientation="0,1"
       id="guide3194" /><sodipodi:guide
       position="17.631209,36.078512"
       orientation="0,1"
       id="guide3196" /><sodipodi:guide
       position="-3.0426764,18.101221"
       orientation="0,1"
       id="guide3198" /><sodipodi:guide
       position="-22.817697,0.12392982"
       orientation="0,1"
       id="guide3200" /><sodipodi:guide
       position="-11.881511,36.078512"
       orientation="1,0"
       id="guide3204" /><sodipodi:guide
       position="6.2455906,40.123403"
       orientation="1,0"
       id="guide3206" /><sodipodi:guide
       position="24.222882,42.370564"
       orientation="1,0"
       id="guide3208" /><sodipodi:guide
       position="60.177464,45.51659"
       orientation="1,0"
       id="guide3212" /><sodipodi:guide
       position="70.11496,54.656743"
       orientation="0,1"
       id="guide3403" /><sodipodi:guide
       position="-9.1849174,47.988467"
       orientation="0,1"
       id="guide3405" /><sodipodi:guide
       position="-1.8441904,61.546341"
       orientation="1,0"
       id="guide3407" /><sodipodi:guide
       position="8.1931306,54.656743"
       orientation="1,0"
       id="guide3409" /><sodipodi:guide
       position="6.2455906,77.800807"
       orientation="0,1"
       id="guide3413" /><sodipodi:guide
       position="4.1482396,50.085818"
       orientation="0,1"
       id="guide3415" /><sodipodi:guide
       position="64.222355,72.257807"
       orientation="1,0"
       id="guide3417" /><sodipodi:guide
       position="54.185034,59.748612"
       orientation="1,0"
       id="guide3419" /><sodipodi:guide
       position="66.169895,57.576356"
       orientation="1,0"
       id="guide3421" /></sodipodi:namedview><g
     id="layer3"
     inkscape:label="Layer#2"
     inkscape:groupmode="layer"
     display="none"
     style="display:none"
     transform="translate(-26.759001,-22.927)"><path
       id="rect3140"
       inkscape:connector-curvature="0"
       display="inline"
       d="m 27.576,36.787 48.162,0 0,11.541 -48.162,0 0,-11.541 z"
       style="display:inline" /></g><g
     id="layer2"
     inkscape:label="Layer#1"
     inkscape:groupmode="layer"
     display="none"
     style="display:none"
     transform="translate(-26.759001,-22.927)" /><path
     id="path3145-1-6-1"
     sodipodi:nodetypes="ccccc"
     inkscape:connector-curvature="0"
     d="m 51.920999,-10 5.934,0.056 0,8.895 -5.881,0 -0.053,-8.951 z" /><path
     id="path3145-1-6-1-8"
     sodipodi:nodetypes="ccccc"
     inkscape:connector-curvature="0"
     d="m 7.4359991,-9.937 5.9719999,0 0.02,8.887 -5.9929999,0 0.001,-8.887 z" /><path
     id="polygon3"
     inkscape:connector-curvature="0"
     d="m 40.990999,38.972 5.288,18.038 -13.842,-11.148 -13.843,11.149 5.288,-18.038 -13.843,-11.148 17.11,0 5.288,-18.037 5.287,18.037 17.11,0 -13.843,11.147 z" /><g
     id="g3149"
     inkscape:label="1 copy"
     inkscape:groupmode="layer"
     transform="translate(-26.759001,-22.927)" /><g
     id="g3153"
     inkscape:label="1 copy copy"
     inkscape:groupmode="layer"
     transform="translate(-26.759001,-22.927)" /><g
     id="g3173"
     inkscape:label="1 copy copy copy#1"
     inkscape:groupmode="layer"
     transform="translate(-26.759001,-22.927)" /><g
     id="g3177"
     inkscape:label="1 copy copy copy#2"
     inkscape:groupmode="layer"
     transform="translate(-26.759001,-22.927)" /><g
     id="g3197"
     inkscape:label="1 copy copy copy#7"
     inkscape:groupmode="layer"
     transform="translate(-26.759001,-22.927)" /><g
     id="g3201"
     inkscape:label="1 copy copy copy#8"
     inkscape:groupmode="layer"
     transform="translate(-26.759001,-22.927)" /><g
     id="g3205"
     inkscape:label="1 copy copy copy#9"
     inkscape:groupmode="layer"
     transform="translate(-26.759001,-22.927)" /><g
     id="g3209"
     inkscape:label="1 copy copy copy#10"
     inkscape:groupmode="layer"
     transform="translate(-26.759001,-22.927)" /><g
     id="g3213"
     inkscape:label="1 copy copy copy#11"
     inkscape:groupmode="layer"
     transform="translate(-26.759001,-22.927)" /><g
     id="g3181"
     inkscape:label="1 copy copy copy#3"
     inkscape:groupmode="layer"
     transform="translate(-26.759001,-22.927)" /><g
     id="g3185"
     inkscape:label="1 copy copy copy#4"
     inkscape:groupmode="layer"
     transform="translate(-26.759001,-22.927)" /><g
     id="g3189"
     inkscape:label="1 copy copy copy#5"
     inkscape:groupmode="layer"
     transform="translate(-26.759001,-22.927)" /><g
     id="g3193"
     inkscape:label="1 copy copy copy#6"
     inkscape:groupmode="layer"
     transform="translate(-26.759001,-22.927)" /><g
     id="g3157"
     inkscape:label="1 copy copy copy"
     inkscape:groupmode="layer"
     transform="translate(-26.759001,-22.927)" /><g
     id="g3161"
     inkscape:label="1 copy copy copy copy"
     inkscape:groupmode="layer"
     transform="translate(-26.759001,-22.927)" /><g
     id="g3165"
     inkscape:label="1 copy copy copy copy copy"
     inkscape:groupmode="layer"
     transform="translate(-26.759001,-22.927)" /><g
     id="g3169"
     inkscape:label="1 copy copy copy copy copy copy"
     inkscape:groupmode="layer"
     transform="translate(-26.759001,-22.927)" /><path
     d="m 69.617999,-4.417 -10.32,-0.019 0,4.939 -8.878,0 0,-4.939 -35.55,0 0,4.939 -8.8770002,0 0,-4.939 -10.3930001,0.019 0,68.562 74.3500003,0 -0.332,-68.562 z m -29.523,12.293 11.984,0 0,11.927 -11.984,0 0,-11.927 z m -26.713,-0.031 11.985,0 0,11.927 -11.985,0 0,-11.927 z m -13.45400017,-0.04 11.98500017,0 0,11.928 -11.98500017,0 0,-11.928 z M 11.937999,59.77 l -11.98500017,0 0,-11.926 11.98500017,0 0,11.926 z m 53.509,-0.013 -11.985,0 0,-11.928 11.985,0 0,11.928 z m 0.013,-26.684 -10.022,0 -1.921,1.547 11.932,0 0,11.928 -11.985,0 0,-11.885 -1.354,1.09 0,10.773 -4.978,0 0.394,1.34 4.6,0 0,11.928 -11.985,0 0,-1.99 -1.448,-1.167 0,3.155 -11.985,0 0,-3.581 -1.337,1.077 0,2.475 -11.986,0 0,-11.928 3.97,0 0.385,-1.312 -4.342,0 0,-10.259 -1.337,-1.076 0,11.371 -11.98500017,0 0,-11.925 11.29600017,0 -1.8859999,-1.519 -9.51500027,0 0,-11.927 11.98500017,0 0,2.805 1.404,0 0,-2.837 11.816,0 1.53,-5.22 0,-8.103 11.985,0 0,9.893 1.424,4.857 0,-1.396 11.985,0 0,2.806 1.376,0 0,-2.847 11.984,0 0,11.927 z m 0.027,-13.313 -11.984,0 0,-11.928 11.984,0 0,11.928 z"
     id="path64"
     inkscape:connector-curvature="0" /></svg>