<?xml version="1.0" encoding="UTF-8" standalone="no"?>
<svg
   xmlns:dc="http://purl.org/dc/elements/1.1/"
   xmlns:cc="http://creativecommons.org/ns#"
   xmlns:rdf="http://www.w3.org/1999/02/22-rdf-syntax-ns#"
   xmlns:svg="http://www.w3.org/2000/svg"
   xmlns="http://www.w3.org/2000/svg"
   xmlns:sodipodi="http://sodipodi.sourceforge.net/DTD/sodipodi-0.dtd"
   xmlns:inkscape="http://www.inkscape.org/namespaces/inkscape"
   version="1.1"
   id="Layer_1"
   x="0px"
   y="0px"
   width="66.66674"
   height="66.577827"
   viewBox="5 -10 66.66674 89.880067"
   enable-background="new 0 0 100 100"
   xml:space="preserve"
   inkscape:version="0.91 r13725"
   sodipodi:docname="noun_6075_cc.svg"><metadata
     id="metadata17"><rdf:RDF><cc:Work
         rdf:about=""><dc:format>image/svg+xml</dc:format><dc:type
           rdf:resource="http://purl.org/dc/dcmitype/StillImage" /><dc:title /></cc:Work></rdf:RDF></metadata><defs
     id="defs15" /><sodipodi:namedview
     pagecolor="#ffffff"
     bordercolor="#666666"
     borderopacity="1"
     objecttolerance="10"
     gridtolerance="10"
     guidetolerance="10"
     inkscape:pageopacity="0"
     inkscape:pageshadow="2"
     inkscape:window-width="1366"
     inkscape:window-height="702"
     id="namedview13"
     showgrid="false"
     fit-margin-top="0"
     fit-margin-left="0"
     fit-margin-right="0"
     fit-margin-bottom="0"
     inkscape:zoom="2.36"
     inkscape:cx="-34.297546"
     inkscape:cy="45.3146"
     inkscape:window-x="0"
     inkscape:window-y="27"
     inkscape:window-maximized="1"
     inkscape:current-layer="Layer_1" /><path
     d="m 25.608843,78.729805 c -1.629492,0.08381 -2.343856,-0.710441 -2.343856,-0.710441 L 15.158461,69.91507 32.045919,51.854851 13.860326,68.614056 -1.0175558,53.737667 6.6318935,45.08568 -2.3536999,52.400594 -4.6751409,50.07826 c 0,0 -1.398517,-1.151909 -1.2727966,-2.760878 0.1257203,-1.607021 1.0057627,-2.52504 1.0057627,-2.52504 L 16.987741,22.861241 49.943039,55.81734 27.84647,77.913139 c -9.75e-4,0 -0.608136,0.73383 -2.237627,0.816666 z"
     id="path3"
     inkscape:connector-curvature="0"
     style="fill:#010101" /><rect
     x="28.26475"
     y="-5.4596019"
     transform="matrix(0.7071191,0.70709446,-0.7071191,0.70709446,0,0)"
     width="46.605907"
     height="6.5197392"
     id="rect5"
     style="fill:#010101" /><path
     d="m 54.184395,27.262275 c 0.09843,-4.037529 9.157118,-2.926551 13.84678,-7.616049 4.689661,-4.690472 13.346822,-16.0799483 13.496907,-17.4160459 0.151059,-1.33609756 1.095424,-4.7109377 -2.414026,-8.3479297 -3.512373,-3.6369923 -8.537288,-2.6020281 -8.537288,-2.6020281 0,0 -11.951229,7.83044779 -17.719746,13.5958403 C 47.655708,10.07817 49.792954,18.960148 46.14414,19.023494 42.495326,19.086839 31.619055,8.233361 29.209902,10.641455 26.80075,13.0476 25.485072,14.364207 25.485072,14.364207 L 58.43842,47.320305 c 0,0 0.430763,-0.426849 3.725805,-3.723726 3.298941,-3.298826 -8.081186,-12.298725 -7.97983,-16.334304 z"
     id="path7"
     inkscape:connector-curvature="0"
     style="fill:#010101" /></svg>