<?xml version="1.0" encoding="UTF-8" standalone="no"?>
<!-- Created with Inkscape (http://www.inkscape.org/) -->

<svg
   xmlns:dc="http://purl.org/dc/elements/1.1/"
   xmlns:cc="http://creativecommons.org/ns#"
   xmlns:rdf="http://www.w3.org/1999/02/22-rdf-syntax-ns#"
   xmlns:svg="http://www.w3.org/2000/svg"
   xmlns="http://www.w3.org/2000/svg"
   xmlns:sodipodi="http://sodipodi.sourceforge.net/DTD/sodipodi-0.dtd"
   xmlns:inkscape="http://www.inkscape.org/namespaces/inkscape"
   id="svg2"
   version="1.1"
   inkscape:version="0.91 r13725"
   xml:space="preserve"
   width="280.42499"
   height="145.70863"
   viewBox="0 0 280.42499 145.70863"
   sodipodi:docname="logo.svg"><metadata
     id="metadata8"><rdf:RDF><cc:Work
         rdf:about=""><dc:format>image/svg+xml</dc:format><dc:type
           rdf:resource="http://purl.org/dc/dcmitype/StillImage" /><dc:title></dc:title></cc:Work></rdf:RDF></metadata><defs
     id="defs6"><clipPath
       clipPathUnits="userSpaceOnUse"
       id="clipPath16"><path
         d="M 0,560 960,560 960,0 0,0 0,560 Z"
         id="path18"
         inkscape:connector-curvature="0" /></clipPath></defs><sodipodi:namedview
     pagecolor="#ffffff"
     bordercolor="#666666"
     borderopacity="1"
     objecttolerance="10"
     gridtolerance="10"
     guidetolerance="10"
     inkscape:pageopacity="0"
     inkscape:pageshadow="2"
     inkscape:window-width="1366"
     inkscape:window-height="702"
     id="namedview4"
     showgrid="false"
     fit-margin-top="0"
     fit-margin-left="0"
     fit-margin-right="0"
     fit-margin-bottom="0"
     inkscape:zoom="1.5179226"
     inkscape:cx="111.16636"
     inkscape:cy="88.171078"
     inkscape:window-x="0"
     inkscape:window-y="27"
     inkscape:window-maximized="1"
     inkscape:current-layer="g10" /><g
     id="g10"
     inkscape:groupmode="layer"
     inkscape:label="mockup"
     transform="matrix(1.25,0,0,-1.25,-459.78725,181.25189)"><g
       transform="translate(588.0898,28.4346)"
       id="g90"><path
         style="fill:#ffffff;fill-opacity:1;fill-rule:evenodd;stroke:none;stroke-width:0.80000001px;stroke-linecap:butt;stroke-linejoin:miter;stroke-opacity:1"
         d="M -216.0023,4.768672 1.136568,5.822744 C 1.6622825,30.94436 -10.83838,51.72385 -22.580056,72.756336 l 1.054072,20.027368 -21.60848,-2.108144 c -51.914696,38.91109 -92.268556,21.30253 -131.759026,-0.527032 l -19.50033,3.162216 3.68925,-18.9733 C -203.91985,53.539203 -213.98003,31.163414 -216.0023,4.768672 Z"
         id="path4261"
         inkscape:connector-curvature="0"
         sodipodi:nodetypes="ccccccccc" /><path
         inkscape:connector-curvature="0"
         id="path92"
         style="fill:#231f20;fill-opacity:1;fill-rule:nonzero;stroke:none"
         d="m 0,0 -43.021,0 c -2.253,0 -4.08,1.827 -4.08,4.079 0,2.254 1.827,4.08 4.08,4.08 l 38.864,0 c -0.445,11.665 -2.799,23.037 -7.016,33.863 -2.252,5.781 -5.072,11.444 -8.384,16.831 -1.552,2.526 -3.321,5.128 -5.255,7.736 -0.938,1.263 -1.954,2.559 -3.02,3.853 -0.404,0.493 -0.689,1.072 -0.829,1.692 -0.19,0.838 -0.086,1.533 -0.025,1.88 l 1.422,14.548 -14.609,-2.323 c -1.854,-0.305 -3.133,0.743 -3.596,1.141 l -0.303,0.228 c -0.192,0.145 -0.383,0.289 -0.576,0.433 -0.785,0.579 -1.438,1.052 -2.049,1.481 -5.355,3.769 -11.028,7.016 -16.864,9.653 -11.848,5.354 -24.468,8.415 -37.51,9.094 -12.965,0.673 -25.934,-1.11 -38.547,-5.303 -5.923,-1.969 -11.876,-4.627 -17.695,-7.903 -2.724,-1.532 -5.456,-3.244 -8.119,-5.086 -1.428,-0.989 -2.794,-2.004 -3.942,-2.868 -0.737,-0.555 -1.978,-1.146 -3.689,-0.797 l -14.153,2.251 1.473,-15.07 c 0.091,-0.935 -0.079,-2.32 -1.391,-3.645 -0.44,-0.547 -0.911,-1.144 -1.432,-1.817 -0.003,-0.003 -0.004,-0.006 -0.006,-0.008 -7.819,-10.089 -13.647,-21.362 -17.328,-33.511 -2.593,-8.543 -4.077,-17.389 -4.421,-26.353 l 40.943,0 c 2.253,0 4.079,-1.826 4.079,-4.08 0,-2.252 -1.826,-4.079 -4.079,-4.079 l -45.102,0 c -2.253,0 -4.08,1.827 -4.08,4.079 0,11.163 1.633,22.198 4.853,32.801 3.947,13.033 10.186,25.129 18.543,35.956 0.013,0.018 0.027,0.036 0.04,0.054 0.011,0.013 0.02,0.026 0.031,0.039 l 0.077,0.099 c 0.35,0.451 0.68,0.874 0.996,1.274 l -1.83,18.72 c -0.123,1.258 0.344,2.501 1.265,3.369 0.92,0.866 2.19,1.256 3.437,1.057 l 18.124,-2.881 c 0.901,0.667 1.915,1.404 2.95,2.12 2.869,1.985 5.817,3.832 8.76,5.488 6.272,3.53 12.705,6.401 19.122,8.534 13.582,4.516 27.561,6.437 41.544,5.707 14.062,-0.731 27.669,-4.03 40.448,-9.806 6.302,-2.847 12.425,-6.351 18.197,-10.414 0.663,-0.467 1.367,-0.974 2.212,-1.598 0.012,-0.01 0.025,-0.02 0.039,-0.03 l 18.122,2.881 c 1.249,0.197 2.518,-0.193 3.438,-1.06 0.92,-0.867 1.386,-2.111 1.263,-3.369 l -1.83,-18.715 c 0.765,-0.958 1.5,-1.913 2.198,-2.852 2.076,-2.798 3.98,-5.599 5.657,-8.327 3.565,-5.803 6.606,-11.907 9.035,-18.144 C 1.506,31.951 4.08,18.188 4.08,4.079 4.08,1.827 2.253,0 0,0" /></g><g
       id="g12"><g
         transform="translate(464.8643,101.1084)"
         id="g22"><path
           inkscape:connector-curvature="0"
           id="path24"
           style="fill:#231f20;fill-opacity:1;fill-rule:nonzero;stroke:none"
           d="m 0,0 0,13.824 c 0,0.333 0.167,0.587 0.5,0.761 0.334,0.174 0.731,0.261 1.196,0.261 0.464,0 0.863,-0.087 1.197,-0.261 0.333,-0.174 0.5,-0.428 0.5,-0.761 l 0,-11.913 4.956,0 C 8.652,1.911 8.892,1.768 9.064,1.478 9.239,1.187 9.327,0.839 9.327,0.434 9.327,0.028 9.239,-0.32 9.064,-0.609 8.892,-0.9 8.652,-1.045 8.349,-1.045 l -6.87,0 c -0.407,0 -0.753,0.091 -1.043,0.272 C 0.146,-0.592 0,-0.335 0,0" /></g><g
         transform="translate(475.7119,101.1084)"
         id="g26"><path
           inkscape:connector-curvature="0"
           id="path28"
           style="fill:#231f20;fill-opacity:1;fill-rule:nonzero;stroke:none"
           d="m 0,0 0,13.803 c 0,0.333 0.144,0.59 0.435,0.772 0.29,0.18 0.637,0.271 1.043,0.271 l 7.739,0 c 0.333,0 0.587,-0.145 0.761,-0.435 0.173,-0.29 0.261,-0.63 0.261,-1.022 0,-0.42 -0.092,-0.775 -0.271,-1.065 C 9.786,12.034 9.535,11.89 9.217,11.89 l -5.826,0 0,-3.674 3.261,0 c 0.319,0 0.569,-0.131 0.75,-0.392 C 7.582,7.563 7.674,7.252 7.674,6.89 7.674,6.556 7.586,6.26 7.413,5.998 7.238,5.737 6.984,5.607 6.652,5.607 l -3.261,0 0,-3.696 5.826,0 c 0.318,0 0.569,-0.143 0.751,-0.433 0.179,-0.291 0.271,-0.646 0.271,-1.066 0,-0.391 -0.088,-0.732 -0.261,-1.021 C 9.804,-0.9 9.55,-1.045 9.217,-1.045 l -7.739,0 c -0.406,0 -0.753,0.091 -1.043,0.272 C 0.144,-0.592 0,-0.335 0,0" /></g><g
         transform="translate(487.1348,102.6719)"
         id="g30"><path
           inkscape:connector-curvature="0"
           id="path32"
           style="fill:#231f20;fill-opacity:1;fill-rule:nonzero;stroke:none"
           d="M 0,0 C 0,0.406 0.148,0.812 0.445,1.217 0.743,1.624 1.088,1.826 1.479,1.826 1.695,1.826 1.938,1.738 2.206,1.562 2.474,1.388 2.721,1.192 2.945,0.979 3.17,0.765 3.485,0.569 3.892,0.394 4.298,0.219 4.725,0.131 5.174,0.131 c 0.564,0 1.057,0.119 1.478,0.358 0.42,0.24 0.63,0.599 0.63,1.076 0,0.48 -0.235,0.9 -0.706,1.261 C 6.105,3.188 5.532,3.519 4.858,3.815 4.185,4.112 3.508,4.446 2.825,4.815 2.146,5.185 1.568,5.71 1.098,6.392 0.627,7.072 0.392,7.884 0.392,8.826 c 0,1.536 0.544,2.685 1.63,3.445 1.086,0.761 2.398,1.142 3.935,1.142 0.376,0 0.772,-0.022 1.184,-0.067 0.413,-0.045 0.878,-0.131 1.391,-0.258 0.515,-0.128 0.934,-0.332 1.261,-0.616 0.325,-0.284 0.489,-0.627 0.489,-1.031 0,-0.382 -0.12,-0.78 -0.358,-1.192 C 9.685,9.837 9.354,9.63 8.935,9.63 8.76,9.63 8.391,9.768 7.826,10.043 7.262,10.318 6.638,10.456 5.957,10.456 5.231,10.456 4.687,10.329 4.325,10.076 3.964,9.822 3.783,9.514 3.783,9.152 3.783,8.818 3.953,8.515 4.294,8.239 4.634,7.964 5.058,7.729 5.565,7.532 6.072,7.337 6.627,7.084 7.229,6.772 7.829,6.46 8.384,6.12 8.891,5.75 9.397,5.381 9.821,4.862 10.162,4.196 c 0.341,-0.668 0.511,-1.427 0.511,-2.283 0,-1.494 -0.498,-2.657 -1.499,-3.49 -1,-0.832 -2.312,-1.248 -3.936,-1.248 -1.405,0 -2.63,0.29 -3.674,0.869 C 0.522,-1.377 0,-0.725 0,0" /></g><g
         transform="translate(421.3955,69.2373)"
         id="g34"><path
           inkscape:connector-curvature="0"
           id="path36"
           style="fill:#231f20;fill-opacity:1;fill-rule:nonzero;stroke:none"
           d="m 0,0 c -0.997,0.003 -1.794,0.004 -2.639,0.004 -0.613,0 -1.252,-0.001 -2.009,-0.002 -0.017,2.36 -0.042,4.721 -0.068,7.081 -0.045,4.193 -0.091,8.493 -0.084,12.778 0.59,-2.436 1.175,-4.871 1.748,-7.253 C -2.058,8.475 -1.032,4.207 0,0 m 11.532,-14.085 c -3.113,8.457 -5.369,17.368 -7.55,25.986 -1.743,6.89 -3.545,14.015 -5.783,20.89 -0.322,0.943 -0.895,1.736 -1.802,2.494 -0.816,0.683 -1.732,1.245 -2.801,1.72 -1.151,0.511 -2.075,0.732 -2.861,0.68 -0.716,-0.047 -1.617,-0.388 -1.841,-1.757 -1.36,-9.993 -1.313,-20.288 -1.268,-30.244 0.036,-8.003 0.073,-16.28 -0.623,-24.333 -0.034,-0.444 -0.045,-0.704 -0.034,-0.87 0.094,-1.392 0.733,-2.367 1.897,-2.897 0.594,-0.27 1.224,-0.406 1.873,-0.406 0.463,0 0.951,0.069 1.452,0.208 0.955,0.261 2.248,0.799 2.483,2.441 0.366,2.633 0.477,4.455 0.594,8.326 2.988,0.362 4.647,0.55 7.592,0.868 0.915,-3.299 1.371,-4.792 2.111,-6.701 0.195,-0.498 0.648,-1.091 1.699,-1.091 0.303,0 0.65,0.046 1.062,0.144 1.053,0.249 1.956,0.681 2.761,1.322 0.946,0.755 1.344,1.6 1.215,2.585 -0.018,0.131 -0.065,0.305 -0.176,0.635" /></g><g
         transform="translate(451.6543,74.6875)"
         id="g38"><path
           inkscape:connector-curvature="0"
           id="path40"
           style="fill:#231f20;fill-opacity:1;fill-rule:nonzero;stroke:none"
           d="m 0,0 c -0.66,5.851 -1.344,11.899 -2.203,17.836 -0.118,0.752 -0.776,1.156 -1.334,1.423 -0.604,0.289 -1.323,0.454 -2.266,0.721 -0.99,0.281 -1.68,0.332 -2.24,0.332 l -0.072,0 c -0.174,0 -0.702,0.094 -1.026,-0.285 -0.197,-0.23 -0.267,-0.484 -0.211,-0.845 0.796,-5.279 1.466,-10.648 2.114,-15.864 -2.128,5.654 -4.35,11.478 -7.233,16.879 -0.818,1.494 -1.585,2.463 -2.411,3.037 -0.607,0.421 -1.496,0.837 -2.8,1.306 -0.998,0.358 -1.735,0.515 -2.337,0.483 -0.449,-0.021 -0.791,-0.168 -1.014,-0.437 -0.229,-0.274 -0.313,-0.649 -0.249,-1.115 0.97,-7.151 1.926,-14.304 2.881,-21.456 0.992,-7.422 2.018,-15.097 3.043,-22.643 0.079,-0.58 0.398,-1.32 1.474,-1.546 0.264,-0.055 0.551,-0.083 0.855,-0.083 0.435,0 0.918,0.056 1.475,0.171 0.895,0.186 1.602,0.442 2.164,0.788 0.742,0.456 1.048,1.047 0.936,1.805 -0.844,5.81 -1.624,11.73 -2.38,17.457 0.003,-0.009 0.006,-0.016 0.009,-0.023 2.174,-5.995 4.423,-12.194 8.275,-17.026 l 0.023,-0.027 c 0.657,-0.726 1.536,-0.809 2.138,-0.809 0.418,0 0.907,0.047 1.584,0.151 0.858,0.133 1.496,0.299 2.01,0.524 0.758,0.333 1.09,0.836 0.988,1.49 C 1.34,-11.856 0.658,-5.828 0,0" /></g><g
         transform="translate(460.501,74.0674)"
         id="g42"><path
           inkscape:connector-curvature="0"
           id="path44"
           style="fill:#231f20;fill-opacity:1;fill-rule:nonzero;stroke:none"
           d="m 0,0 c -0.49,5.384 -0.997,10.951 -1.674,16.418 -0.096,0.699 -0.728,1.025 -1.336,1.252 -0.569,0.213 -1.233,0.399 -2.221,0.622 -0.748,0.169 -1.533,0.328 -2.196,0.35 -0.04,0.002 -0.079,0.003 -0.117,0.003 -0.305,0 -0.743,-0.039 -1.021,-0.363 -0.123,-0.142 -0.256,-0.394 -0.199,-0.776 0.8,-5.727 1.419,-11.579 2.018,-17.238 0.599,-5.656 1.217,-11.504 2.017,-17.244 0.097,-0.635 0.564,-1.008 1.389,-1.108 0.207,-0.023 0.427,-0.036 0.67,-0.036 0.375,0 0.806,0.029 1.355,0.092 0.853,0.097 1.449,0.211 1.93,0.368 0.781,0.255 1.134,0.699 1.051,1.311 C 0.994,-10.915 0.489,-5.365 0,0" /></g><g
         transform="translate(483.8193,88.5654)"
         id="g46"><path
           inkscape:connector-curvature="0"
           id="path48"
           style="fill:#231f20;fill-opacity:1;fill-rule:nonzero;stroke:none"
           d="m 0,0 c -0.624,0.161 -1.389,0.19 -2.198,0.223 l -0.19,0.006 C -3.46,0.271 -4.315,0.299 -4.859,0.26 -5.562,0.208 -6.391,0.024 -7.207,-0.95 c -1.363,-1.613 -2.097,-3.292 -3.129,-6.335 -1.374,3.338 -2.234,5.095 -3.765,7.032 -0.887,1.13 -1.702,1.486 -2.381,1.686 -0.646,0.19 -1.528,0.34 -2.705,0.533 -0.795,0.131 -1.642,0.246 -2.254,0.167 -0.898,-0.116 -1.296,-0.704 -1.183,-1.743 0.483,-4.739 0.885,-9.568 1.272,-14.238 0.461,-5.547 0.938,-11.283 1.558,-16.922 0.072,-0.59 0.522,-0.934 1.335,-1.024 0.226,-0.025 0.472,-0.037 0.751,-0.037 0.32,0 0.686,0.016 1.185,0.051 0.641,0.045 1.313,0.104 1.875,0.234 0.8,0.186 1.178,0.579 1.126,1.165 -0.401,4.858 -0.72,9.808 -1.029,14.594 -0.025,0.388 -0.051,0.776 -0.075,1.164 0.184,-0.498 0.367,-0.996 0.552,-1.494 0.7,-1.901 1.4,-3.677 2.109,-5.568 0.476,-1.31 1.238,-1.88 2.267,-1.88 l 0.04,0 c 0.72,0 1.687,0.214 2.203,1.826 0.314,1 0.627,1.943 0.939,2.944 0.362,1.162 0.73,2.314 1.104,3.5 0.012,-0.442 0.022,-0.9 0.034,-1.343 0.113,-4.46 0.232,-9.078 0.291,-13.608 0.006,-0.848 0.916,-0.985 1.215,-1.029 0.542,-0.079 1.178,-0.098 1.837,-0.11 0.229,-0.003 0.448,-0.005 0.657,-0.005 0.503,0 0.872,0.014 1.194,0.051 0.304,0.034 1.229,0.137 1.265,0.99 0.138,5.204 0.117,10.495 0.097,15.609 C 1.161,-10.445 1.144,-6.004 1.22,-1.645 1.242,-0.741 0.854,-0.219 0,0" /></g><g
         transform="translate(498.2021,67.7783)"
         id="g50"><path
           inkscape:connector-curvature="0"
           id="path52"
           style="fill:#231f20;fill-opacity:1;fill-rule:nonzero;stroke:none"
           d="m 0,0 c -1.401,0.023 -2.33,0.04 -3.717,0.067 0.784,3.929 1.59,7.962 2.484,11.955 0.423,-3.515 0.76,-7.057 1.088,-10.509 L 0,0 Z M 6.452,1.733 C 6.012,8.102 5.556,14.688 3.658,20.787 L 3.634,20.655 c -0.338,0.748 -1.291,0.567 -1.749,0.567 l -0.089,0 c -0.697,0 -1.519,0.117 -2.411,0.033 -0.906,-0.086 -1.761,-0.068 -2.508,-0.194 -0.826,-0.139 -1.451,-0.285 -1.81,-0.776 L -4.974,20.242 C -7.682,15.151 -8.64,9.319 -9.567,3.668 c -0.691,-4.21 -1.405,-8.556 -2.837,-12.501 -0.075,-0.203 -0.106,-0.317 -0.111,-0.428 -0.047,-1 1.058,-1.265 1.421,-1.352 0.731,-0.177 1.479,-0.233 2.243,-0.28 0.357,-0.022 0.651,-0.037 0.909,-0.037 0.475,0 0.956,0.05 1.257,0.417 0.585,0.722 0.876,1.575 1.362,3.371 2.336,-0.102 3.698,-0.17 6.125,-0.308 0.234,-1.884 0.377,-2.801 0.665,-3.686 0.238,-0.711 1.113,-0.825 2.04,-0.945 0.418,-0.055 0.971,-0.117 1.542,-0.117 0.317,0 0.613,0.018 0.901,0.057 1.041,0.138 1.624,0.583 1.732,1.323 0.016,0.113 0.01,0.245 -0.024,0.499 -0.643,3.921 -0.929,8.054 -1.206,12.052" /></g><g
         transform="translate(526.7725,72.6309)"
         id="g54"><path
           inkscape:connector-curvature="0"
           id="path56"
           style="fill:#231f20;fill-opacity:1;fill-rule:nonzero;stroke:none"
           d="m 0,0 c 0.734,7.162 1.493,14.568 2.43,21.82 0.058,0.44 -0.025,0.792 -0.245,1.048 -0.221,0.255 -0.556,0.386 -1.024,0.39 -0.557,0 -1.222,-0.148 -2.157,-0.48 -0.92,-0.326 -1.626,-0.651 -2.221,-1.021 -0.517,-0.323 -1.127,-0.798 -1.252,-1.628 -0.959,-6.751 -1.64,-13.653 -2.3,-20.328 -0.269,-2.731 -0.548,-5.555 -0.841,-8.325 -0.485,-4.493 -1.809,-5.098 -3.04,-5.098 -0.123,0 -0.25,0.007 -0.38,0.02 -0.786,0.079 -1.319,0.318 -1.675,0.753 -0.607,0.743 -0.791,2.188 -0.565,4.421 0.252,2.551 0.485,5.151 0.709,7.664 0.554,6.208 1.127,12.627 2.051,18.864 0.071,0.426 -0.069,0.699 -0.199,0.851 -0.287,0.34 -0.738,0.381 -1.062,0.381 -0.519,0 -1.153,-0.095 -2.119,-0.316 -0.961,-0.222 -1.638,-0.42 -2.197,-0.645 -0.55,-0.221 -1.197,-0.565 -1.318,-1.293 -0.861,-5.941 -1.332,-12.04 -1.787,-17.937 -0.186,-2.394 -0.376,-4.87 -0.59,-7.294 -0.434,-4.743 0.039,-7.255 1.631,-8.668 1.501,-1.333 3.644,-1.839 6.289,-2.361 1.311,-0.258 2.695,-0.498 3.925,-0.498 1.324,0 2.358,0.276 3.164,0.841 2.873,2.02 3.572,6.429 3.858,10.029 C -0.602,-5.874 -0.301,-2.938 0,0" /></g><g
         transform="translate(550.9033,106.5527)"
         id="g58"><path
           inkscape:connector-curvature="0"
           id="path60"
           style="fill:#231f20;fill-opacity:1;fill-rule:nonzero;stroke:none"
           d="m 0,0 c -0.886,0.31 -1.854,0.147 -2.955,-0.505 -0.964,-0.571 -1.61,-1.345 -2.034,-2.429 -2.115,-5.263 -3.943,-10.724 -5.705,-16.017 -0.662,3.819 -1.351,7.766 -3.2,11.23 -0.236,0.409 -0.618,0.624 -1.103,0.624 -0.343,0 -0.741,-0.107 -1.255,-0.339 -0.985,-0.444 -1.886,-1.04 -2.753,-1.822 -1.008,-0.91 -1.533,-1.793 -1.652,-2.777 -0.064,-0.528 0.014,-1.075 0.227,-1.615 1.817,-4.938 2.751,-10.27 3.655,-15.424 0.144,-0.822 0.288,-1.644 0.435,-2.462 -0.289,-0.767 -0.577,-1.537 -0.865,-2.309 -2.131,-5.703 -4.333,-11.599 -7.475,-16.859 -0.317,-0.547 -0.499,-1.038 -0.554,-1.501 -0.128,-1.056 0.258,-1.964 1.181,-2.778 0.793,-0.702 1.676,-1.167 2.7,-1.424 0.327,-0.082 0.607,-0.122 0.856,-0.122 0.464,0 0.837,0.142 1.109,0.423 l 0.033,0.036 c 2.993,3.674 4.655,8.318 6.263,12.808 0.053,0.149 0.106,0.298 0.159,0.447 0.915,-5.329 1.882,-10.823 3.863,-15.955 0.272,-0.699 0.864,-1.17 1.809,-1.441 0.425,-0.122 0.842,-0.184 1.24,-0.184 0.709,0 1.397,0.195 2.042,0.58 1.125,0.668 1.734,1.793 1.813,3.342 0.031,0.635 -0.06,1.38 -0.272,2.214 -2.046,8 -3.521,16.265 -4.821,23.571 1.546,4.674 3.083,9.434 4.571,14.039 1.185,3.67 2.411,7.463 3.632,11.189 0.313,0.946 0.49,1.79 0.526,2.507 C 1.57,-0.972 0.726,-0.253 0,0" /></g><g
         transform="translate(439.2148,31.5547)"
         id="g62"><path
           inkscape:connector-curvature="0"
           id="path64"
           style="fill:#231f20;fill-opacity:1;fill-rule:nonzero;stroke:none"
           d="m 0,0 1.935,0 c 1.303,0 1.956,0.725 1.956,2.174 l 0,5.63 c 0,1.449 -0.653,2.174 -1.956,2.174 L 0,9.978 0,0 Z m -3.392,-1.935 0,13.847 c 0,0.276 0.138,0.515 0.413,0.718 0.276,0.202 0.631,0.305 1.066,0.305 l 3.848,0 c 1.622,0 2.919,-0.414 3.89,-1.24 0.97,-0.826 1.456,-2.124 1.456,-3.891 l 0,-5.63 C 7.281,0.405 6.795,-0.892 5.825,-1.717 4.854,-2.544 3.557,-2.956 1.935,-2.956 l -3.848,0 c -0.435,0 -0.79,0.101 -1.066,0.304 -0.275,0.203 -0.413,0.441 -0.413,0.717" /></g><g
         transform="translate(448.3896,33.5986)"
         id="g66"><path
           inkscape:connector-curvature="0"
           id="path68"
           style="fill:#231f20;fill-opacity:1;fill-rule:nonzero;stroke:none"
           d="m 0,0 0,9.868 c 0,0.333 0.163,0.586 0.488,0.761 0.327,0.175 0.73,0.262 1.208,0.262 0.463,0 0.862,-0.087 1.195,-0.262 0.334,-0.175 0.501,-0.428 0.501,-0.761 L 3.392,0 c 0,-1.45 0.695,-2.175 2.087,-2.175 1.39,0 2.086,0.725 2.086,2.175 l 0,9.868 c 0,0.333 0.163,0.586 0.49,0.761 0.325,0.175 0.727,0.262 1.206,0.262 0.465,0 0.862,-0.087 1.194,-0.262 0.334,-0.175 0.501,-0.428 0.501,-0.761 l 0,-9.868 c 0,-1.769 -0.501,-3.065 -1.5,-3.892 -0.999,-0.826 -2.326,-1.239 -3.977,-1.239 -1.668,0 -2.997,0.413 -3.99,1.239 C 0.496,-3.065 0,-1.769 0,0" /></g><g
         transform="translate(465.9756,29.6406)"
         id="g70"><path
           inkscape:connector-curvature="0"
           id="path72"
           style="fill:#231f20;fill-opacity:1;fill-rule:nonzero;stroke:none"
           d="m 0,0 0,13.805 c 0,0.333 0.145,0.591 0.436,0.771 0.289,0.182 0.636,0.273 1.042,0.273 l 7.543,0 c 0.333,0 0.587,-0.147 0.76,-0.437 0.175,-0.289 0.263,-0.63 0.263,-1.019 0,-0.42 -0.091,-0.777 -0.273,-1.067 -0.182,-0.29 -0.432,-0.434 -0.75,-0.434 l -5.63,0 0,-3.674 3.284,0 c 0.317,0 0.567,-0.13 0.748,-0.392 C 7.604,7.565 7.695,7.254 7.695,6.892 7.695,6.559 7.607,6.261 7.435,6 7.26,5.74 7.007,5.609 6.675,5.609 l -3.284,0 0,-5.609 c 0,-0.332 -0.166,-0.589 -0.5,-0.771 C 2.558,-0.952 2.159,-1.042 1.696,-1.042 1.231,-1.042 0.833,-0.952 0.5,-0.771 0.166,-0.589 0,-0.332 0,0" /></g><g
         transform="translate(477.417,33.5986)"
         id="g74"><path
           inkscape:connector-curvature="0"
           id="path76"
           style="fill:#231f20;fill-opacity:1;fill-rule:nonzero;stroke:none"
           d="m 0,0 0,9.868 c 0,0.333 0.162,0.586 0.488,0.761 0.326,0.175 0.729,0.262 1.206,0.262 0.464,0 0.863,-0.087 1.197,-0.262 C 3.224,10.454 3.39,10.201 3.39,9.868 L 3.39,0 c 0,-1.45 0.696,-2.175 2.089,-2.175 1.389,0 2.085,0.725 2.085,2.175 l 0,9.868 c 0,0.333 0.163,0.586 0.49,0.761 0.325,0.175 0.727,0.262 1.206,0.262 0.464,0 0.862,-0.087 1.194,-0.262 0.335,-0.175 0.5,-0.428 0.5,-0.761 l 0,-9.868 c 0,-1.769 -0.5,-3.065 -1.499,-3.892 -1,-0.826 -2.326,-1.239 -3.976,-1.239 -1.669,0 -2.998,0.413 -3.992,1.239 C 0.495,-3.065 0,-1.769 0,0" /></g><g
         transform="translate(489.8516,43.0322)"
         id="g78"><path
           inkscape:connector-curvature="0"
           id="path80"
           style="fill:#231f20;fill-opacity:1;fill-rule:nonzero;stroke:none"
           d="m 0,0 c 0,0.392 0.088,0.735 0.263,1.023 0.173,0.289 0.425,0.434 0.759,0.434 l 9.391,0 C 10.746,1.457 11,1.312 11.174,1.023 11.348,0.735 11.436,0.392 11.436,0 c 0,-0.423 -0.092,-0.778 -0.274,-1.067 C 10.981,-1.356 10.731,-1.5 10.413,-1.5 l -2.999,0 0,-11.883 c 0,-0.337 -0.168,-0.595 -0.5,-0.778 -0.334,-0.183 -0.733,-0.273 -1.196,-0.273 -0.464,0 -0.862,0.09 -1.197,0.273 -0.334,0.183 -0.5,0.441 -0.5,0.778 l 0,11.883 -2.999,0 c -0.319,0 -0.569,0.144 -0.75,0.433 C 0.092,-0.778 0,-0.423 0,0" /></g><g
         transform="translate(502.7773,33.5986)"
         id="g82"><path
           inkscape:connector-curvature="0"
           id="path84"
           style="fill:#231f20;fill-opacity:1;fill-rule:nonzero;stroke:none"
           d="m 0,0 0,9.868 c 0,0.333 0.163,0.586 0.489,0.761 0.326,0.175 0.729,0.262 1.207,0.262 0.464,0 0.862,-0.087 1.195,-0.262 0.334,-0.175 0.5,-0.428 0.5,-0.761 L 3.391,0 c 0,-1.45 0.696,-2.175 2.088,-2.175 1.39,0 2.085,0.725 2.085,2.175 l 0,9.868 c 0,0.333 0.164,0.586 0.491,0.761 0.325,0.175 0.726,0.262 1.206,0.262 0.464,0 0.862,-0.087 1.195,-0.262 0.332,-0.175 0.5,-0.428 0.5,-0.761 l 0,-9.868 c 0,-1.769 -0.5,-3.065 -1.5,-3.892 -1,-0.826 -2.325,-1.239 -3.977,-1.239 -1.666,0 -2.998,0.413 -3.991,1.239 C 0.496,-3.065 0,-1.769 0,0" /></g><g
         transform="translate(519.2197,37.4893)"
         id="g86"><path
           inkscape:connector-curvature="0"
           id="path88"
           style="fill:#231f20;fill-opacity:1;fill-rule:nonzero;stroke:none"
           d="m 0,0 2.152,0 c 0.638,0 1.122,0.155 1.456,0.467 0.334,0.311 0.5,0.831 0.5,1.554 0,0.725 -0.166,1.243 -0.5,1.555 C 3.274,3.888 2.79,4.043 2.152,4.043 L 0,4.043 0,0 Z m -3.392,-7.849 0,13.827 c 0,0.275 0.098,0.514 0.294,0.717 C -2.901,6.897 -2.652,7 -2.348,7 l 4.5,0 C 5.716,7 7.5,5.448 7.5,2.349 7.5,0.087 6.622,-1.385 4.869,-2.065 L 7.521,-6.869 C 7.593,-6.972 7.629,-7.102 7.629,-7.261 7.629,-7.682 7.402,-8.079 6.945,-8.457 6.489,-8.833 6.007,-9.021 5.5,-9.021 c -0.508,0 -0.869,0.209 -1.088,0.629 l -2.977,5.784 -1.435,0 0,-5.241 c 0,-0.332 -0.167,-0.589 -0.499,-0.77 -0.335,-0.182 -0.733,-0.272 -1.196,-0.272 -0.465,0 -0.862,0.09 -1.197,0.272 -0.333,0.181 -0.5,0.438 -0.5,0.77" /></g></g></g></svg>